<svg xmlns="http://www.w3.org/2000/svg" width="831" height="849" fill="none" viewBox="0 0 831 849"><rect width="25.558" height="10.816" x="29.979" y="266.214" fill="#F1A81A" rx="5.408" transform="rotate(-43.36 29.979 266.214)"/><rect width="25.558" height="10.816" x=".479" y="296.696" fill="#F1A81A" rx="5.408" transform="rotate(-43.36 .48 296.696)"/><rect width="25.558" height="10.816" fill="#F1A81A" rx="5.408" transform="scale(-1 1) rotate(-43.36 345.164 218.761)"/><rect width="25.558" height="10.816" fill="#F1A81A" rx="5.408" transform="scale(-1 1) rotate(-43.36 321.576 166.42)"/><rect width="25.558" height="10.816" x="497.038" y="809.971" fill="#F1A81A" rx="5.408" transform="rotate(-43.36 497.038 809.971)"/><rect width="25.558" height="10.816" x="467.539" y="840.453" fill="#F1A81A" rx="5.408" transform="rotate(-43.36 467.539 840.453)"/><rect width="25.558" height="10.816" fill="#F1A81A" rx="5.408" transform="scale(-1 1) rotate(-43.36 795.522 1078.064)"/><rect width="25.558" height="10.816" fill="#F1A81A" rx="5.408" transform="scale(-1 1) rotate(-43.36 771.933 1025.723)"/><rect width="25.558" height="10.816" x="384.943" y="18.427" fill="#3D539C" rx="5.408" transform="rotate(-43.36 384.943 18.427)"/><rect width="25.558" height="10.816" x="355.444" y="48.909" fill="#3D539C" rx="5.408" transform="rotate(-43.36 355.444 48.91)"/><rect width="25.558" height="10.816" fill="#3D539C" rx="5.408" transform="scale(-1 1) rotate(-43.36 -143.962 541.31)"/><rect width="25.558" height="10.816" fill="#3D539C" rx="5.408" transform="scale(-1 1) rotate(-43.36 -167.55 488.969)"/><rect width="25.558" height="10.816" x="804.805" y="320.295" fill="#3D539C" rx="5.408" transform="rotate(-43.36 804.805 320.295)"/><rect width="25.558" height="10.816" x="775.307" y="350.777" fill="#3D539C" rx="5.408" transform="rotate(-43.36 775.307 350.777)"/><rect width="25.558" height="10.816" fill="#3D539C" rx="5.408" transform="scale(-1 1) rotate(-43.36 25.769 1220.307)"/><rect width="25.558" height="10.816" fill="#3D539C" rx="5.408" transform="scale(-1 1) rotate(-43.36 2.18 1167.966)"/><circle cx="223.006" cy="470.301" r="42.054" stroke="#FB8D2F" stroke-width="12.616"/><circle cx="650.694" cy="583.426" r="27.335" stroke="#FB8D2F" stroke-width="12.616"/><circle cx="728.914" cy="503.103" r="27.335" stroke="#FB8D2F" stroke-width="12.616"/><circle cx="476.591" cy="363.905" r="69.389" stroke="#FB8D2F" stroke-width="12.616"/><path stroke="#FB8D2F" stroke-width="12.616" d="M397.529 546.418C413.505 564.548 418.772 575.928 421.079 598.565M554.811 544.736C537.123 563.45 531.292 575.197 528.737 598.565"/><circle cx="728.914" cy="201.576" r="27.335" stroke="#FB8D2F" stroke-width="12.616"/><line x1="289.938" x2="322.74" y1="127.232" y2="172.651" stroke="#FB8D2F" stroke-width="12.616"/><line x1="482.888" x2="479.523" y1="69.903" y2="126.255" stroke="#FB8D2F" stroke-width="12.616"/><line x1="671.743" x2="638.1" y1="134.681" y2="180.099" stroke="#FB8D2F" stroke-width="12.616"/><path stroke="#2C1E61" stroke-width="12.616" d="M586.771 397.967H625.041C638.976 397.967 650.273 409.264 650.273 423.199V554.407"/><path stroke="#2C1E61" stroke-width="12.616" d="M588.033 363.903H703.261C717.196 363.903 728.493 375.2 728.493 389.136V474.085M250.761 273.067H203.661L194.829 328.578 168.335 338.671 123.338 299.14 86.7508 323.532 117.03 373.576 98.1054 399.229 40.4915 386.192 28.2959 430.348 80.0222 454.319V488.383L28.2959 514.877 40.4915 551.884 98.1054 539.268 117.03 569.547 89.6946 617.488 122.497 643.141 164.13 598.985 195.67 611.601 199.876 668.374H244.873L252.864 611.601 282.722 598.985 321.832 643.141 355.475 617.488 326.458 569.547"/><path stroke="#2C1E61" stroke-width="12.616" d="M598.547 294.935L571.632 301.243L561.539 290.729L577.52 267.6L533.784 234.377L513.598 258.769L503.084 254.563L500.982 223.864H447.573L446.312 252.881L432.013 258.769L414.771 236.059L372.297 267.6L387.436 290.729L378.184 301.243L351.27 294.935L335.71 345.82L360.942 355.913V371.894L335.71 380.725L351.27 430.348L378.184 424.04L387.436 435.815L372.297 459.366L415.192 492.168L432.013 469.879L447.573 476.187V503.102H502.664V474.505L517.383 469.879L535.466 490.486L577.099 459.366L561.96 435.815L571.632 424.04L600.229 433.713"/><path fill="#333" d="M540.452 706.222H412.824C407.03 706.222 402.449 701.352 402.452 695.558C402.46 681.34 400.929 667.456 398.272 654.075H475.145H552.017C551.917 656.029 551.867 657.991 551.867 659.963L550.538 696.496C550.341 701.924 545.883 706.222 540.452 706.222Z"/><path stroke="#2C1E61" stroke-width="12.616" d="M623.779 225.546C578.641 182.23 459.096 118.729 342.018 211.248 224.94 303.766 285.946 454.74 331.084 518.662 350.878 542.854 386.198 593.27 398.272 654.075M622.097 513.615C584.957 565.287 554.406 607.271 552.017 654.075M398.272 654.075C400.929 667.456 402.46 681.34 402.452 695.558 402.449 701.352 407.03 706.222 412.824 706.222H540.452C545.883 706.222 550.341 701.924 550.538 696.496L551.867 659.963C551.867 657.991 551.917 656.029 552.017 654.075M398.272 654.075H475.145M552.017 654.075H475.145M475.145 654.075V503.102M585.51 330.681H619.994C636.252 330.681 649.432 317.501 649.432 301.243V229.751C649.432 213.493 662.611 200.313 678.869 200.313H702.42"/><path fill="#333" d="M426.967 706.222H527.056V739.865C527.056 746.833 521.407 752.481 514.439 752.481H439.583C432.616 752.481 426.967 746.833 426.967 739.865V706.222Z"/></svg>